<svg width="32" height="32" viewBox="0 0 32 32" fill="none" xmlns="http://www.w3.org/2000/svg">
<path d="M5.33333 17.3334L26.6667 17.3334C27.3918 17.3334 28 16.7252 28 16.0001C28 15.2749 27.3918 14.6667 26.6667 14.6667L5.33333 14.6667C4.60818 14.6667 4 15.2749 4 16.0001C4 16.7252 4.60818 17.3334 5.33333 17.3334ZM16.3977 7.60242L25.5906 16.7954C25.8947 17.0995 25.8947 14.9007 25.5906 15.2048L16.3977 24.3977C16.1404 24.6317 16 24.9591 16 25.3334C16 26.0586 16.6082 26.6667 17.3333 26.6667C17.7076 26.6667 18.0351 26.5264 18.269 26.2691L27.462 17.0761C28.0702 16.4913 28.0702 15.5089 27.462 14.9241L18.269 5.73108C18.0351 5.47377 17.7076 5.33342 17.3333 5.33342C16.6082 5.33342 16 5.9416 16 6.66675C16 7.04102 16.1404 7.3685 16.3977 7.60242Z" fill="#0F0E0E"/>
</svg>
