<svg width="100" height="100" viewBox="0 0 100 100" fill="none" xmlns="http://www.w3.org/2000/svg">
<circle cx="50" cy="50" r="50" fill="#FDEAC4"/>
<path d="M49.6944 23.1115C49.2389 23.3718 49.2389 23.4238 49.2285 26.6932C49.2285 29.6606 49.2389 29.8271 49.4356 30.0354C49.5391 30.1603 49.7358 30.2853 49.8497 30.3269C50.1602 30.431 50.6261 30.202 50.771 29.9C50.8435 29.723 50.8849 28.6402 50.8849 26.6203V23.5904L50.5847 23.2885C50.2638 22.9657 50.0257 22.924 49.6944 23.1115Z" fill="#F8BA3B"/>
<path d="M36.4407 27.0989C36.1508 27.3905 36.1197 27.6612 36.3371 28.0776C36.6995 28.7857 39.329 32.8463 39.5568 33.0545C40.0848 33.5335 40.8405 33.1795 40.8405 32.4715C40.8405 32.1383 40.592 31.6802 39.3394 29.6915C38.5112 28.3796 37.714 27.203 37.5691 27.0677C37.2274 26.7657 36.7616 26.7657 36.4407 27.0989Z" fill="#F8BA3B"/>
<path d="M63.1724 27.1197C62.9343 27.1822 59.4766 32.3881 59.4766 32.6797C59.4766 32.9504 60.0149 33.5022 60.2737 33.5022C60.3772 33.5022 60.5739 33.4293 60.7085 33.3356C61.0605 33.0857 64.2387 28.2338 64.2387 27.9318C64.2387 27.5466 64.1352 27.3592 63.8143 27.203C63.5141 27.0468 63.483 27.0364 63.1724 27.1197Z" fill="#F8BA3B"/>
<path d="M49.4355 34.5125C47.4995 34.6062 45.7706 35.0851 43.9072 36.0326C41.2052 37.4174 39.1036 39.5935 37.7785 42.4047C36.0392 46.0905 36.0806 50.4739 37.882 54.191C38.5549 55.5758 39.2485 56.5649 40.4805 57.8664C41.0706 58.5015 41.6917 59.2616 41.8574 59.5635C42.5199 60.7193 42.903 62.3331 42.9858 64.3218C43.0479 65.592 43.0686 65.7378 43.286 65.9564L43.5241 66.1959H50.0877H56.6512L56.8893 65.9356C57.0964 65.7066 57.1378 65.5608 57.1688 64.6654C57.2413 62.5309 57.6657 60.6151 58.3076 59.5115C58.4732 59.2408 59.1048 58.4703 59.7259 57.7935C61.0407 56.3567 61.7032 55.4092 62.3865 53.9723C63.4735 51.6713 63.9083 49.0579 63.6185 46.6215C63.4321 45.0806 62.8627 43.196 62.2105 41.9049C61.8689 41.249 60.9372 39.8954 60.3264 39.1874C58.1006 36.6157 54.6842 34.8352 51.506 34.5958C51.0815 34.5645 50.5639 34.5229 50.3672 34.5125C50.1705 34.4916 49.746 34.4916 49.4355 34.5125ZM51.889 36.2617C54.3529 36.6677 56.4856 37.7193 58.2765 39.4373C59.788 40.8846 60.7819 42.4672 61.3823 44.3621C61.8482 45.8198 61.9724 46.6424 61.9724 48.1729C61.9621 51.3902 60.7819 54.3576 58.6182 56.5441C57.3241 57.856 56.7754 58.6993 56.2267 60.2611C55.9058 61.1357 55.5435 63.1348 55.5435 63.9678V64.53H50.1187H44.694L44.6319 64.2905C44.6008 64.1656 44.5697 63.8428 44.5697 63.5825C44.5697 62.8329 44.2799 61.344 43.9382 60.3132C43.462 58.8868 42.9133 58.0017 41.5986 56.5961C40.3252 55.2322 39.673 54.2743 39.0829 52.8895C36.5672 47.0068 39.0622 40.1766 44.7561 37.3653C45.9984 36.751 47.013 36.4491 48.7108 36.1784C49.3423 36.0743 51.0194 36.1159 51.889 36.2617Z" fill="#F8BA3B"/>
<path d="M49.6938 38.0941C49.1658 38.4169 49.083 38.9479 49.4867 39.354C49.7041 39.583 49.8698 39.6247 50.6566 39.6767C53.8245 39.9058 56.6507 41.832 58.0276 44.6953C58.6073 45.8927 58.8351 46.684 58.9179 47.8397C58.98 48.7663 59.1146 49.1932 59.3838 49.3286C59.7047 49.5056 60.0981 49.4431 60.3569 49.1724C60.5847 48.9538 60.6157 48.8288 60.6157 48.2353C60.6157 47.8501 60.5226 47.0588 60.3983 46.4861C59.6115 42.54 56.5782 39.3227 52.7271 38.344C51.5055 38.0421 49.994 37.9171 49.6938 38.0941Z" fill="#F8BA3B"/>
<path d="M28.5946 35.8035C27.9941 35.9701 27.7974 36.7094 28.2426 37.1154C28.6877 37.5215 33.4913 40.062 33.8019 40.062C34.4334 40.062 34.7751 39.2291 34.3506 38.7293C34.1746 38.5315 29.6505 36.0014 29.1226 35.8035C28.988 35.7619 28.7499 35.7619 28.5946 35.8035Z" fill="#F8BA3B"/>
<path d="M71.0704 35.7619C70.6252 35.9389 65.9148 38.5419 65.7492 38.7085C65.2626 39.1874 65.6353 40.062 66.2979 40.062C66.5981 40.062 71.4638 37.4903 71.8779 37.1154C72.1678 36.8447 72.1885 36.2929 71.8986 36.0014C71.7847 35.8868 71.6501 35.7931 71.5984 35.7931C71.5466 35.7931 71.4431 35.7723 71.3603 35.7515C71.2878 35.7202 71.1532 35.7307 71.0704 35.7619Z" fill="#F8BA3B"/>
<path d="M44.2476 67.2268C43.2952 67.4246 42.6016 68.2472 42.6016 69.1946C42.6016 70.1109 42.9846 70.7252 43.7921 71.1C44.1752 71.277 44.5789 71.2979 49.9622 71.2979C53.9997 71.2979 55.8218 71.2666 56.0702 71.1833C57.8198 70.5898 58.0165 68.2263 56.3808 67.4246L55.9046 67.1851L50.2625 67.1643C47.1567 67.1643 44.4547 67.1851 44.2476 67.2268ZM55.7286 68.9239C55.915 69.1114 55.8736 69.4029 55.6561 69.5278C55.5216 69.5903 53.5753 69.6319 50.0554 69.6319C46.5355 69.6319 44.5893 69.5903 44.4547 69.5278C44.2683 69.4237 44.1855 69.0072 44.3304 68.8719C44.3615 68.8302 46.9186 68.799 50.0036 68.799C54.2171 68.799 55.6354 68.8302 55.7286 68.9239Z" fill="#F8BA3B"/>
<path d="M45.758 72.2242C45.2921 72.3388 45.0436 72.5054 44.6916 72.901C43.822 73.9005 44.1222 75.4311 45.3128 76.0246L45.8511 76.2953H50.0232C54.5783 76.2953 54.6405 76.2849 55.2616 75.6914C55.7068 75.2645 55.8828 74.848 55.8828 74.2129C55.8828 73.5778 55.7068 73.1509 55.2616 72.7448C54.6508 72.1722 54.7647 72.1826 50.2613 72.1618C47.9527 72.1513 45.9339 72.1826 45.758 72.2242ZM54.2056 74.0255C54.3092 74.2129 54.2885 74.2754 54.0918 74.442C53.8744 74.619 53.5845 74.6294 50.1164 74.6294C48.0666 74.6294 46.2756 74.5981 46.1514 74.5669C45.8718 74.494 45.7476 74.1504 45.9132 73.9526C46.0271 73.8173 46.6793 73.7964 50.0646 73.7964H54.0814L54.2056 74.0255Z" fill="#F8BA3B"/>
</svg>
