<svg width="101" height="100" viewBox="0 0 101 100" fill="none" xmlns="http://www.w3.org/2000/svg">
<circle cx="50.0019" cy="50" r="50" fill="white"/>
<path d="M49.6963 23.1115C49.2408 23.3718 49.2408 23.4238 49.2305 26.6932C49.2305 29.6606 49.2408 29.8271 49.4375 30.0354C49.541 30.1603 49.7377 30.2853 49.8516 30.3269C50.1622 30.431 50.6281 30.202 50.773 29.9C50.8455 29.723 50.8869 28.6402 50.8869 26.6203V23.5904L50.5867 23.2885C50.2657 22.9657 50.0276 22.924 49.6963 23.1115Z" fill="#F8BA3B"/>
<path d="M36.4426 27.099C36.1527 27.3906 36.1217 27.6613 36.3391 28.0778C36.7014 28.7858 39.331 32.8464 39.5587 33.0547C40.0867 33.5336 40.8424 33.1796 40.8424 32.4716C40.8424 32.1384 40.594 31.6803 39.3413 29.6916C38.5131 28.3797 37.716 27.2032 37.571 27.0678C37.2294 26.7659 36.7635 26.7659 36.4426 27.099Z" fill="#F8BA3B"/>
<path d="M63.1744 27.1198C62.9363 27.1823 59.4785 32.3882 59.4785 32.6798C59.4785 32.9505 60.0168 33.5023 60.2757 33.5023C60.3792 33.5023 60.5759 33.4294 60.7105 33.3357C61.0625 33.0858 64.2407 28.2339 64.2407 27.9319C64.2407 27.5467 64.1372 27.3593 63.8162 27.2031C63.516 27.0469 63.485 27.0365 63.1744 27.1198Z" fill="#F8BA3B"/>
<path d="M49.4374 34.5125C47.5015 34.6062 45.7726 35.0851 43.9091 36.0326C41.2071 37.4174 39.1055 39.5935 37.7804 42.4047C36.0412 46.0905 36.0826 50.4739 37.8839 54.191C38.5569 55.5758 39.2505 56.5649 40.4824 57.8664C41.0725 58.5015 41.6937 59.2616 41.8593 59.5635C42.5219 60.7193 42.9049 62.3331 42.9878 64.3218C43.0499 65.592 43.0706 65.7378 43.288 65.9564L43.5261 66.1959H50.0896H56.6531L56.8913 65.9356C57.0983 65.7066 57.1397 65.5608 57.1708 64.6654C57.2432 62.5309 57.6677 60.6151 58.3096 59.5115C58.4752 59.2408 59.1067 58.4703 59.7279 57.7935C61.0426 56.3567 61.7052 55.4092 62.3885 53.9723C63.4755 51.6713 63.9103 49.0579 63.6204 46.6215C63.4341 45.0806 62.8647 43.196 62.2125 41.9049C61.8708 41.249 60.9391 39.8954 60.3283 39.1874C58.1025 36.6157 54.6862 34.8352 51.5079 34.5958C51.0835 34.5645 50.5658 34.5229 50.3691 34.5125C50.1724 34.4917 49.748 34.4917 49.4374 34.5125ZM51.891 36.2617C54.3549 36.6677 56.4875 37.7193 58.2785 39.4373C59.79 40.8846 60.7838 42.4672 61.3843 44.3621C61.8501 45.8198 61.9744 46.6424 61.9744 48.1729C61.964 51.3902 60.7838 54.3576 58.6201 56.5441C57.3261 57.856 56.7774 58.6993 56.2287 60.2611C55.9078 61.1357 55.5454 63.1348 55.5454 63.9678V64.53H50.1207H44.6959L44.6338 64.2905C44.6028 64.1656 44.5717 63.8428 44.5717 63.5825C44.5717 62.8329 44.2818 61.344 43.9402 60.3132C43.464 58.8868 42.9153 58.0017 41.6005 56.5961C40.3271 55.2322 39.6749 54.2743 39.0848 52.8895C36.5692 47.0068 39.0641 40.1766 44.758 37.3653C46.0004 36.751 47.0149 36.4491 48.7127 36.1784C49.3442 36.0743 51.0213 36.1159 51.891 36.2617Z" fill="#F8BA3B"/>
<path d="M49.6957 38.0941C49.1678 38.4169 49.0849 38.9479 49.4887 39.354C49.7061 39.583 49.8717 39.6247 50.6585 39.6767C53.8264 39.9058 56.6527 41.832 58.0296 44.6953C58.6093 45.8927 58.8371 46.684 58.9199 47.8397C58.982 48.7663 59.1166 49.1932 59.3857 49.3286C59.7067 49.5056 60.1001 49.4431 60.3589 49.1724C60.5866 48.9538 60.6177 48.8288 60.6177 48.2353C60.6177 47.8501 60.5245 47.0588 60.4003 46.4861C59.6135 42.54 56.5802 39.3227 52.729 38.344C51.5074 38.0421 49.996 37.9171 49.6957 38.0941Z" fill="#F8BA3B"/>
<path d="M28.5965 35.8035C27.9961 35.9701 27.7994 36.7094 28.2445 37.1154C28.6897 37.5215 33.4933 40.062 33.8039 40.062C34.4354 40.062 34.777 39.2291 34.3526 38.7293C34.1766 38.5315 29.6525 36.0014 29.1245 35.8035C28.9899 35.7619 28.7518 35.7619 28.5965 35.8035Z" fill="#F8BA3B"/>
<path d="M71.0723 35.7619C70.6272 35.9389 65.9168 38.5419 65.7511 38.7085C65.2646 39.1874 65.6372 40.062 66.2998 40.062C66.6 40.062 71.4657 37.4903 71.8798 37.1154C72.1697 36.8447 72.1904 36.2929 71.9005 36.0014C71.7867 35.8868 71.6521 35.7931 71.6003 35.7931C71.5486 35.7931 71.445 35.7723 71.3622 35.7515C71.2897 35.7202 71.1552 35.7307 71.0723 35.7619Z" fill="#F8BA3B"/>
<path d="M44.2496 67.2268C43.2971 67.4246 42.6035 68.2472 42.6035 69.1946C42.6035 70.1109 42.9866 70.7252 43.7941 71.1C44.1771 71.277 44.5809 71.2979 49.9642 71.2979C54.0017 71.2979 55.8237 71.2666 56.0722 71.1833C57.8218 70.5898 58.0185 68.2263 56.3828 67.4246L55.9066 67.1851L50.2644 67.1643C47.1586 67.1643 44.4566 67.1851 44.2496 67.2268ZM55.7306 68.9239C55.9169 69.1114 55.8755 69.4029 55.6581 69.5278C55.5235 69.5903 53.5772 69.6319 50.0574 69.6319C46.5375 69.6319 44.5912 69.5903 44.4566 69.5278C44.2703 69.4237 44.1875 69.0072 44.3324 68.8719C44.3635 68.8302 46.9205 68.799 50.0056 68.799C54.2191 68.799 55.6374 68.8302 55.7306 68.9239Z" fill="#F8BA3B"/>
<path d="M45.7599 72.2242C45.294 72.3388 45.0456 72.5054 44.6936 72.901C43.824 73.9005 44.1242 75.4311 45.3147 76.0246L45.8531 76.2953H50.0252C54.5803 76.2953 54.6424 76.2849 55.2636 75.6914C55.7087 75.2645 55.8847 74.848 55.8847 74.2129C55.8847 73.5778 55.7087 73.1509 55.2636 72.7448C54.6528 72.1722 54.7666 72.1826 50.2633 72.1618C47.9546 72.1513 45.9359 72.1826 45.7599 72.2242ZM54.2076 74.0255C54.3111 74.2129 54.2904 74.2754 54.0937 74.442C53.8763 74.619 53.5864 74.6294 50.1183 74.6294C48.0685 74.6294 46.2775 74.5981 46.1533 74.5669C45.8738 74.494 45.7496 74.1504 45.9152 73.9526C46.0291 73.8173 46.6813 73.7964 50.0666 73.7964H54.0834L54.2076 74.0255Z" fill="#F8BA3B"/>
</svg>
